# xmcd
#
# Track frame offsets:
#	150
#	17840
#	35338
#	50963
#	69230
#	82336
#	94977
#	111064
#	130893
#	144802
#	169978
#	184532
#
# Disc length: 2687 seconds
#
# Revision: 1
# Processed by: cddbd v1.4PL0 Copyright (c) Steve Scherf et al.
# Submitted via: audiograbber 1.82.02
#
DISCID=a50a7d0c
DTITLE=Wibbelstetz - Schluss mit Lustig
DYEAR=1999
DGENRE=
TTITLE0=Müsje, Müsje
TTITLE1=Wenn ich net mieh benn
TTITLE2=Dat ruede Ribbelche
TTITLE3=Wat wär ich ohne dich
TTITLE4=Der Mann em wisse Keddel
TTITLE5=En de Rompelsjaß
TTITLE6=Heut' krieg ich sie rum
TTITLE7=Zovell jedranke
TTITLE8=Handy
TTITLE9=Efel
TTITLE10=Knispel
TTITLE11=Ongerm Appelboom
EXTD=
EXTT0=
EXTT1=
EXTT2=
EXTT3=
EXTT4=
EXTT5=
EXTT6=
EXTT7=
EXTT8=
EXTT9=
EXTT10=
EXTT11=
PLAYORDER=
